<?xml version="1.0" encoding="UTF-8"?>
<svg enable-background="new 0 0 1069.935 193.88" version="1.1" viewBox="0 0 1296 256" xml:space="preserve" xmlns="http://www.w3.org/2000/svg" xmlns:cc="http://creativecommons.org/ns#" xmlns:dc="http://purl.org/dc/elements/1.1/" xmlns:rdf="http://www.w3.org/1999/02/22-rdf-syntax-ns#"><metadata><rdf:RDF><cc:Work rdf:about=""><dc:format>image/svg+xml</dc:format><dc:type rdf:resource="http://purl.org/dc/dcmitype/StillImage"/><dc:title/></cc:Work></rdf:RDF></metadata><g transform="matrix(1.7199 0 0 1.6753 -41.989 -34.436)" fill="#5d87bf"><polygon points="252.85 73.086 271.44 120.5 278.1 120.5 278.03 120.43 278.18 120.5 292.27 85.4 307.2 120.5 313.94 120.5 331.87 73.086 323.06 73.086 310.57 105.57 297.02 73.086 287.6 73.086 274.81 105.57 261.66 73.086"/><path d="m229.99 73.086h-33.35v9.496h31.714c4.272 0 6.407 2.515 6.407 7.542v0.045h-30.716c-8.118 0.031-12.176 4.075-12.176 12.13v6.589c0 7.938 4.391 11.905 13.176 11.905h39.303v-33.712c-0.06-9.331-4.847-13.995-14.358-13.995zm-22.218 38.166c-4.241 0-6.361-1.985-6.361-5.952h-0.046c0.03-3.727 2.333-5.59 6.907-5.59h26.511l0.024 11.542h-27.035z"/><path d="m375.43 73.086h-23.9c-9.541 0.03-14.313 4.801-14.313 14.313v19.357c0.091 9.268 4.862 13.948 14.313 14.038h36.077v-9.541h-34.396c-4.301 0.029-6.452-2.316-6.452-7.041v-4.317h42.984v-14.906c-0.093-7.875-4.863-11.842-14.313-11.903zm4.725 17.083h-33.396v-0.726c0-4.543 2.423-6.816 7.271-6.816h21.401c3.149 0 4.74 1.198 4.77 3.59l-0.046 3.952z"/><path d="m439.18 91.942h-23.672c-3.181-0.031-4.771-1.637-4.771-4.817 0-3.09 1.575-4.65 4.726-4.681h37.803v-9.359h-37.757c-9.542 0-14.329 3.998-14.358 11.995v4.817c0.03 7.815 4.816 11.721 14.358 11.721h22.264c4.059 0.062 6.104 1.532 6.134 4.407-0.122 3.485-2.181 5.243-6.18 5.271h-36.44v9.496h37.667c9.571 0 14.433-3.968 14.584-11.905v-4.677c-0.03-8.178-4.816-12.268-14.358-12.268z"/><path d="m500.7 73.086h-23.854c-9.512 0.03-14.313 4.801-14.403 14.313v21.22c0.03 8.057 4.801 12.13 14.313 12.22h23.9c9.632-0.09 14.464-4.041 14.494-11.856v-21.585c-0.091-9.542-4.907-14.312-14.45-14.312zm4.817 34.623c-0.03 2.394-2.181 3.588-6.452 3.588h-18.812c-5.543-0.028-8.3-1.651-8.27-4.86v-17.767c0.06-4.028 2.166-6.059 6.316-6.089h21.127c4.059 0.03 6.089 2.061 6.089 6.089v19.039z"/><path d="m583.17 73.131h-57.114l0.046 47.663h9.541v-38.168h15.131c3.999 0.031 6.027 2.03 6.089 5.999v32.078h9.86v-38.077h14.856c4.21 0.031 6.332 2.122 6.361 6.271l0.045 31.896h9.634v-33.35c-0.03-9.511-4.848-14.282-14.449-14.312z"/><rect x="673.09" y="92.214" width="38.166" height="9.54"/><path d="m763.91 85.69 4.748-12.314h-9.419l-12.789 32.487-13.152-32.487h-8.805l18.588 47.418h6.663l-0.077-0.077 0.153 0.077z"/><path d="m646.06 73.086h-23.9c-9.541 0.03-14.313 4.801-14.313 14.313v19.357c0.091 9.268 4.862 13.948 14.313 14.038h36.077v-9.541h-34.396c-4.301 0.029-6.452-2.316-6.452-7.041v-4.317h42.984v-14.906c-0.093-7.875-4.863-11.842-14.313-11.903zm4.725 17.083h-33.396v-0.726c0-4.543 2.423-6.816 7.271-6.816h21.401c3.149 0 4.74 1.198 4.77 3.59l-0.046 3.952z"/></g><g transform="matrix(1.7231 0 0 1.723 16 16.006)"><path d="m85.738 127.5 44.036-124.06c0.74969-2.1028-0.42901-3.6348-2.6261-3.4242l-34.633 3.3802c-2.1971 0.21511-4.5675 2.1028-5.2954 4.2144l-40.761 118.56c-0.72369 2.1116 0.47668 3.8237 2.6825 3.8237h33.71c1.105 0 2.3011-0.85165 2.6738-1.9052l0.21235-0.59263z" fill="#536b8a" style="isolation:isolate"/><path d="m2.8518 0.025314 34.633 3.3802c2.1971 0.21511 4.5718 2.1028 5.2998 4.2144l41.623 120.47c0.36401 1.0536-0.234 1.9097-1.339 1.9097h-33.922c-2.2058 0-4.6021-1.7077-5.3518-3.8105l-43.569-122.74c-0.74969-2.1028 0.42901-3.6348 2.6261-3.4242z" fill="#5d87bf" style="isolation:isolate"/><path d="m114.31 47.016-2.8269 7.9677 3.8304 3.8803h-99.884l3.2818-3.3245-2.8288-7.9677-11.138 11.283 0.00955 0.0099h-0.00955v20.077c0 8.718 7.0394 15.846 15.644 15.846h23.857c8.6049 0 15.646-7.1283 15.646-15.846v-12.415h10.952v12.415c0 8.718 7.0394 15.846 15.644 15.846h23.859c8.6039 0 15.644-7.1283 15.644-15.846v-20.077h-0.01l0.0114-0.0099-11.686-11.838z"/></g></svg>
